<svg xmlns="http://www.w3.org/2000/svg" fill="none" viewBox="0 0 1376 486">
  <defs/>
  <path fill="#fff" d="M610.98 44.06h-53.52L590.24 218h75.82l17.62-136.03h1.78L707.54 218h75.82l26.09-173.94h-49.06l-15.16 136.03h-1.79L724.71 44.06h-75.82l-18.73 136.03h-1.79L610.98 44.06zm215.43 0V218h142.5v-40.14h-95.67v-28.99h84.29v-37.91h-84.3V84.2h95.67V44.06H826.4zm295.28 0h-75.82L985.88 218h51.29l9.59-33.9h69.8l10.93 33.9h53.52l-59.32-173.94zm-64 102.13L1082 79.74h1.78l22.3 66.45h-48.39zm244.22-102.13h-103.92V218h46.83v-56.87h45.94c14.94 0 19.62 4.91 19.62 24.53 0 15.62.89 24.98 4.69 32.34h51.29v-2c-7.14-8.03-8.92-23.2-8.92-40.82 0-21.18-10.04-28.1-29.66-32.55 23.63-5.36 32.11-15.17 32.11-35.9v-6.7c0-47.27-8.7-55.97-57.98-55.97zm-57.09 81.4V81.97h45.05c19.62 0 23.19 3.8 23.19 21.4 0 18.3-3.57 22.08-23.19 22.08h-45.05z"/>
  <path fill="#fff" d="M610.98 44.06l2.1-.27-.24-1.85h-1.86v2.12zm-53.52 0v-2.12h-2.56l.48 2.51 2.08-.39zM590.24 218l-2.08.4.32 1.72h1.76V218zm75.82 0v2.12h1.86l.24-1.85-2.1-.27zm17.62-136.03v-2.12h-1.86l-.24 1.85 2.1.27zm1.78 0l2.1-.34-.3-1.78h-1.8v2.12zM707.54 218l-2.1.34.3 1.78h1.8V218zm75.82 0v2.12h1.82l.27-1.8-2.1-.32zm26.09-173.94l2.1.31.36-2.43h-2.46v2.12zm-49.06 0v-2.12h-1.9l-.2 1.89 2.1.23zm-15.16 136.03v2.12h1.9l.2-1.89-2.1-.23zm-1.79 0l-2.1.29.25 1.83h1.85v-2.12zM724.71 44.06l2.1-.29-.25-1.83h-1.85v2.12zm-75.82 0v-2.12h-1.85l-.25 1.83 2.1.29zm-18.73 136.03v2.12H632l.25-1.83-2.1-.29zm-1.79 0l-2.1.27.24 1.85h1.86v-2.12zM610.98 41.94h-53.52v4.24h53.52v-4.24zm-55.6 2.51l32.78 173.94 4.16-.78-32.78-173.94-4.16.78zm34.86 175.67h75.82v-4.24h-75.82v4.24zm77.92-1.85l17.62-136.03-4.2-.54-17.62 136.03 4.2.54zM683.68 84.1h1.78v-4.24h-1.78v4.24zm-.31-1.78l22.08 136.03 4.18-.68-22.08-136.03-4.18.68zm24.17 137.8h75.82v-4.23h-75.82v4.24zm77.91-1.8l26.1-173.94-4.2-.62-26.09 173.94 4.2.62zm24-176.37h-49.06v4.24h49.06v-4.24zm-51.17 1.89l-15.16 136.03 4.21.46L762.5 44.3l-4.22-.46zm-13.05 134.14h-1.79v4.24h1.79v-4.24zm.31 1.83L726.81 43.77l-4.2.58 18.73 136.03 4.2-.58zM724.71 41.94h-75.82v4.24h75.82v-4.24zm-77.92 1.83L628.06 179.8l4.2.58 18.73-136.03-4.2-.58zm-16.63 134.2h-1.79v4.24h1.79v-4.24zm.32 1.85L613.08 43.8l-4.2.54 17.4 136.03 4.2-.54zM826.4 44.06v-2.12h-2.12v2.12h2.12zm0 173.94h-2.12v2.12h2.12V218zm142.5 0v2.12h2.11V218h-2.12zm0-40.14h2.11v-2.12h-2.12v2.12zm-95.67 0h-2.12v2.12h2.12v-2.12zm0-28.99v-2.12h-2.12v2.12h2.12zm84.29 0v2.12h2.12v-2.12h-2.12zm0-37.91h2.12v-2.12h-2.12v2.12zm-84.3 0h-2.11v2.12h2.12v-2.12zm0-26.76v-2.12h-2.11v2.12h2.12zm95.67 0v2.12h2.12V84.2h-2.12zm0-40.14h2.12v-2.12h-2.12v2.12zm-144.61 0V218h4.24V44.06h-4.24zm2.12 176.06h142.5v-4.24H826.4v4.24zM971.02 218v-40.14h-4.24V218h4.24zm-2.12-42.26h-95.66v4.24h95.66v-4.24zm-93.54 2.12v-28.99h-4.24v28.99h4.24zm-2.12-26.87h84.29v-4.24h-84.3V151zm86.4-2.12v-37.91h-4.23v37.91h4.24zm-2.11-40.03h-84.3v4.24h84.3v-4.24zm-82.17 2.12V84.2h-4.24v26.76h4.24zm-2.12-24.64h95.66v-4.24h-95.66v4.24zm97.78-2.12V44.06h-4.24V84.2h4.24zm-2.12-42.26H826.4v4.24h142.5v-4.24zm152.79 2.12l2.01-.68-.49-1.44h-1.52v2.12zm-75.82 0v-2.12h-1.51l-.49 1.43 2 .69zM985.88 218l-2-.7-.97 2.82h2.97V218zm51.29 0v2.12h1.61l.43-1.54-2.04-.58zm9.59-33.9V182h-1.6l-.44 1.54 2.04.57zm69.8 0l2.02-.65-.48-1.46h-1.54v2.11zm10.93 33.9l-2.02.65.47 1.47h1.55V218zm53.52 0v2.12h2.96l-.96-2.8-2 .68zm-123.32-71.8l-1.99-.73-1.04 2.84h3.03v-2.12zM1082 79.73v-2.12h-1.49l-.5 1.4 1.99.72zm1.78 0l2.01-.67-.49-1.45h-1.52v2.12zm22.3 66.45v2.12h2.95l-.94-2.79-2.01.67zm15.61-104.25h-75.82v4.24h75.82v-4.24zm-77.82 1.43l-60 173.94 4.02 1.38 59.98-173.94-4-1.38zm-57.99 176.75h51.29v-4.24h-51.29v4.24zm53.33-1.54l9.59-33.9-4.08-1.15-9.59 33.9 4.08 1.15zm7.55-32.36h69.8V182h-69.8v4.23zm67.78-1.47l10.93 33.9 4.03-1.3-10.92-33.9-4.04 1.3zm12.95 35.37h53.52v-4.24h-53.52v4.24zm55.52-2.8L1123.7 43.38l-4.02 1.36L1179 218.68l4.01-1.36zm-123.33-70.4l24.31-66.45-3.98-1.46-24.31 66.46 3.98 1.45zM1082 81.86h1.78v-4.24H1082v4.24zm-.23-1.45l22.3 66.46 4.02-1.35-22.3-66.45-4.02 1.34zm24.31 63.66h-48.39v4.24h48.39v-4.24zm91.91-100.01v-2.12h-2.12v2.12h2.12zm0 173.94h-2.12v2.12h2.12V218zm46.83 0v2.12h2.12V218h-2.12zm0-56.87v-2.11h-2.12v2.11h2.12zm70.25 56.87l-1.89.97.59 1.15h1.3V218zm51.29 0v2.12h2.11V218h-2.11zm0-2h2.11v-.81l-.53-.6-1.58 1.4zm-38.58-73.37l-.47-2.07v4.13l.47-2.06zm-82.96-17.17h-2.12v2.11h2.12v-2.11zm0-43.49v-2.12h-2.12v2.12h2.12zm57.09-40.03h-103.92v4.24h103.92v-4.24zm-106.04 2.12V218h4.24V44.06h-4.24zm2.12 176.06h46.83v-4.24h-46.83v4.24zm48.95-2.12v-56.87h-4.24V218h4.24zm-2.12-54.75h45.94v-4.23h-45.94v4.23zm45.94 0c7.37 0 11.39 1.25 13.78 4.14 2.51 3.04 3.72 8.46 3.72 18.28h4.24c0-9.81-1.13-16.66-4.69-20.98-3.69-4.46-9.48-5.67-17.05-5.67v4.23zm17.5 22.41c0 15.58.87 25.44 4.92 33.31l3.77-1.94c-3.53-6.85-4.45-15.72-4.45-31.37h-4.24zm6.81 34.46h51.29v-4.24h-51.29v4.24zm53.4-2.12v-2h-4.23v2h4.23zm-.53-3.41c-3.2-3.6-5.33-8.97-6.64-15.8-1.3-6.8-1.75-14.85-1.75-23.6h-4.23c0 8.85.44 17.2 1.82 24.4 1.37 7.16 3.7 13.39 7.63 17.81l3.17-2.81zm-8.39-39.4c0-10.94-2.59-18.6-8.09-24.06-5.41-5.38-13.33-8.32-23.21-10.57l-.94 4.13c9.73 2.22 16.64 4.95 21.16 9.45 4.43 4.4 6.85 10.79 6.85 21.04h4.23zm-31.31-30.5c11.99-2.71 20.53-6.63 26.04-12.84 5.55-6.25 7.73-14.49 7.73-25.13h-4.24c0 10.1-2.06 17.14-6.66 22.32-4.64 5.22-12.15 8.88-23.8 11.52l.93 4.13zm33.77-37.97v-6.69h-4.24v6.7h4.24zm0-6.69c0-11.85-.54-21.44-2.18-29.13-1.64-7.71-4.41-13.67-8.98-18.1-4.56-4.43-10.7-7.12-18.67-8.72-7.96-1.6-17.92-2.14-30.27-2.14v4.24c12.29 0 21.9.54 29.43 2.06 7.52 1.5 12.79 3.94 16.56 7.6 3.77 3.65 6.25 8.73 7.79 15.94 1.53 7.24 2.08 16.47 2.08 28.25h4.24zm-115.07 25.42V81.97h-4.24v43.48h4.24zm-2.12-41.36h45.05v-4.24h-45.05v4.24zm45.05 0c4.86 0 8.59.24 11.48.82 2.86.59 4.73 1.49 6.02 2.7 1.27 1.2 2.18 2.9 2.76 5.46.59 2.6.81 5.94.81 10.3h4.24c0-4.44-.22-8.17-.92-11.24-.7-3.1-1.92-5.66-3.99-7.6-2.05-1.94-4.76-3.1-8.08-3.77-3.3-.67-7.38-.9-12.32-.9v4.23zm21.07 19.29c0 4.53-.23 8.01-.82 10.7-.58 2.68-1.49 4.43-2.77 5.67-1.29 1.24-3.15 2.16-6.01 2.75-2.88.6-6.61.84-11.47.84v4.23c4.94 0 9.02-.23 12.33-.92 3.33-.69 6.04-1.86 8.09-3.85 2.07-2 3.28-4.62 3.97-7.8.7-3.16.92-7.01.92-11.62h-4.24zm-21.07 19.96h-45.05v4.23h45.05v-4.23zM9.41 274.06v-2.12H7.3v2.12H9.4zm0 173.94H7.3v2.12H9.4V448zm142.5 0v2.12h2.12V448h-2.12zm0-40.14h2.12v-2.12h-2.12v2.12zm-95.67 0h-2.12v2.12h2.12v-2.12zm0-28.99v-2.12h-2.12v2.12h2.12zm84.3 0v2.12h2.12v-2.12h-2.12zm0-37.91h2.12v-2.12h-2.12v2.12zm-84.3 0h-2.12v2.12h2.12v-2.12zm0-26.76v-2.12h-2.12v2.12h2.12zm95.67 0v2.12h2.12v-2.12h-2.12zm0-40.14h2.12v-2.12h-2.12v2.12zm-144.61 0V448h4.23V274.06H7.3zM9.4 450.12h142.5v-4.24H9.41v4.24zM154.03 448v-40.14h-4.24V448h4.24zm-2.12-42.26H56.24v4.24h95.67v-4.24zm-93.55 2.12v-28.99h-4.23v28.99h4.23zm-2.12-26.87h84.3v-4.24h-84.3V381zm86.42-2.12v-37.91h-4.24v37.91h4.24zm-2.12-40.03h-84.3v4.24h84.3v-4.24zm-82.18 2.12V314.2h-4.23v26.76h4.23zm-2.12-24.64h95.67v-4.24H56.24v4.24zm97.79-2.12v-40.14h-4.24v40.14h4.24zm-2.12-42.26H9.41v4.24h142.5v-4.24zm185.6 2.12l2.04.58.76-2.7h-2.8v2.12zm-51.3 0v-2.12h-1.63l-.41 1.59 2.05.53zm-34.56 133.8v2.12h1.64l.41-1.59-2.05-.53zm-1.78 0l-2.05.54.42 1.58h1.63v-2.12zm-35.46-133.8l2.05-.54-.42-1.58h-1.63v2.12zm-53.52 0v-2.12h-2.84l.8 2.72 2.04-.6zM212.4 448l-2.03.6.45 1.52h1.58V448zm75.82 0v2.12h1.6l.44-1.54-2.04-.58zm49.29-176.06h-51.3v4.24h51.3v-4.24zm-53.34 1.59l-34.57 133.8 4.1 1.06 34.57-133.8-4.1-1.06zm-32.52 132.21h-1.78v4.24h1.78v-4.24zm.27 1.58l-35.46-133.8-4.1 1.08 35.46 133.8 4.1-1.08zM214.4 271.94h-53.52v4.24h53.52v-4.24zm-55.55 2.72l51.51 173.94 4.06-1.2-51.5-173.94-4.07 1.2zm53.54 175.46h75.82v-4.24H212.4v4.24zm77.86-1.54l49.29-173.94-4.08-1.16-49.29 173.94 4.08 1.16zm56.23-174.52v-2.12h-2.12v2.12h2.12zm0 173.94h-2.12v2.12h2.12V448zm142.5 0v2.12h2.11V448h-2.12zm0-40.14h2.11v-2.12h-2.12v2.12zm-95.67 0h-2.12v2.12h2.12v-2.12zm0-28.99v-2.12h-2.12v2.12h2.12zm84.3 0v2.12h2.11v-2.12h-2.12zm0-37.91h2.11v-2.12h-2.12v2.12zm-84.3 0h-2.12v2.12h2.12v-2.12zm0-26.76v-2.12h-2.12v2.12h2.12zm95.66 0v2.12h2.12v-2.12h-2.12zm0-40.14h2.12v-2.12h-2.12v2.12zm-144.61 0V448h4.24V274.06h-4.24zm2.12 176.06h142.5v-4.24h-142.5v4.24zM491.1 448v-40.14h-4.24V448h4.24zm-2.12-42.26h-95.66v4.24h95.66v-4.24zm-93.54 2.12v-28.99h-4.24v28.99h4.24zm-2.12-26.87h84.3v-4.24h-84.3V381zm86.41-2.12v-37.91h-4.24v37.91h4.24zm-2.12-40.03h-84.3v4.24h84.3v-4.24zm-82.17 2.12V314.2h-4.24v26.76h4.24zm-2.12-24.64h95.66v-4.24h-95.66v4.24zm97.78-2.12v-40.14h-4.24v40.14h4.24zm-2.12-42.26h-142.5v4.24h142.5v-4.24zm16.79 2.12v-2.12h-2.12v2.12h2.12zm0 173.94h-2.12v2.12h2.12V448zm46.83 0v2.12h2.12V448h-2.12zm0-56.87v-2.11h-2.12v2.12h2.12zM622.84 448l-1.88.97.6 1.15h1.28V448zm51.3 0v2.12h2.11V448h-2.12zm0-2h2.11v-.81l-.53-.6-1.59 1.4zm-38.59-73.37l-.46-2.07v4.13l.46-2.06zm-82.95-17.18h-2.12v2.12h2.12v-2.12zm0-43.48v-2.12h-2.12v2.12h2.12zm57.09-40.03H505.77v4.24h103.92v-4.24zm-106.04 2.12V448h4.24V274.06h-4.24zm2.12 176.06h46.83v-4.24h-46.83v4.24zm48.95-2.12v-56.87h-4.24V448h4.24zm-2.12-54.75h45.94v-4.23H552.6v4.23zm45.94 0c7.37 0 11.39 1.25 13.78 4.14 2.5 3.04 3.72 8.46 3.72 18.28h4.24c0-9.81-1.13-16.66-4.7-20.98-3.68-4.46-9.47-5.67-17.04-5.67v4.23zm17.5 22.42c0 15.57.87 25.43 4.92 33.3l3.77-1.94c-3.53-6.85-4.45-15.72-4.45-31.36h-4.24zm6.8 34.45h51.3v-4.24h-51.3v4.24zm53.41-2.12v-2h-4.24v2h4.24zm-.53-3.42c-3.2-3.6-5.34-8.96-6.64-15.8-1.3-6.8-1.75-14.84-1.75-23.6h-4.24c0 8.87.45 17.21 1.83 24.4 1.37 7.17 3.7 13.4 7.63 17.82l3.17-2.81zm-8.39-39.4c0-10.93-2.6-18.58-8.1-24.05-5.4-5.38-13.32-8.32-23.2-10.57l-.94 4.13c9.73 2.21 16.64 4.95 21.16 9.45 4.42 4.4 6.85 10.79 6.85 21.04h4.23zm-31.3-30.49c11.98-2.71 20.52-6.63 26.03-12.84 5.55-6.25 7.73-14.49 7.73-25.13h-4.24c0 10.1-2.06 17.14-6.66 22.32-4.64 5.22-12.15 8.88-23.8 11.52l.93 4.13zm33.76-37.97v-6.69h-4.24v6.7h4.24zm0-6.69c0-11.85-.55-21.44-2.18-29.13-1.64-7.71-4.4-13.67-8.98-18.1-4.56-4.43-10.7-7.12-18.68-8.72-7.95-1.6-17.91-2.14-30.26-2.14v4.24c12.28 0 21.9.54 29.43 2.06 7.51 1.5 12.79 3.94 16.56 7.6 3.77 3.65 6.25 8.73 7.79 15.94 1.53 7.24 2.08 16.47 2.08 28.25h4.24zm-115.07 25.43v-43.49h-4.24v43.48h4.24zm-2.12-41.37h45.04v-4.24H552.6v4.24zm45.04 0c4.87 0 8.6.24 11.48.82 2.87.59 4.74 1.49 6.03 2.7 1.27 1.2 2.18 2.9 2.76 5.46.58 2.6.8 5.94.8 10.3h4.25c0-4.44-.23-8.17-.92-11.24-.7-3.1-1.92-5.65-3.99-7.6-2.06-1.94-4.76-3.1-8.08-3.77-3.3-.67-7.38-.9-12.33-.9v4.23zm21.08 19.29c0 4.53-.23 8.01-.82 10.7-.58 2.68-1.5 4.43-2.77 5.67-1.29 1.24-3.15 2.16-6.01 2.75-2.88.6-6.61.84-11.48.84v4.23c4.95 0 9.03-.23 12.34-.92 3.33-.69 6.03-1.86 8.1-3.85 2.06-2 3.26-4.62 3.96-7.8.7-3.16.92-7.01.92-11.62h-4.24zm-21.08 19.96H552.6v4.23h45.04v-4.23zm253.74-79.28l1.86 1.02 1.73-3.14h-3.59v2.12zm-51.29 0v-2.12h-1.3l-.59 1.16 1.89.96zm-33 64.67v2.12h1.3l.58-1.16-1.88-.96zm-1.34 0l-1.9.95.59 1.17h1.3v-2.12zm-32.34-64.67l1.9-.95-.59-1.17h-1.3v2.12zm-53.52 0v-2.12h-3.62l1.78 3.16 1.84-1.04zm62.89 111.95h2.12v-.56l-.27-.48-1.85 1.04zm0 61.99h-2.12v2.12h2.12V448zm46.83 0v2.12h2.12V448h-2.12zm0-62l-1.86-1.02-.26.48v.55h2.12zm61.77-114.06h-51.29v4.24h51.29v-4.24zm-53.18 1.16l-33 64.67 3.77 1.92 33-64.67-3.77-1.92zM767.1 336.6h-1.34v4.24h1.34v-4.24zm.55 1.17l-32.33-64.67-3.8 1.9 32.34 64.67 3.8-1.9zm-34.23-65.84H679.9v4.24h53.52v-4.24zm-55.36 3.16l62.88 111.94 3.7-2.07-62.89-111.95-3.7 2.08zM740.66 386v62h4.24v-62h-4.24zm2.12 64.12h46.83v-4.24h-46.83v4.24zm48.95-2.12v-62h-4.24v62h4.24zm-.26-60.97l61.77-111.95-3.72-2.04-61.77 111.94 3.72 2.05zM907.3 314.2v-2.12h-2.1l-.02 2.11 2.12.01zm0 93.66l-2.12.01.01 2.1h2.11v-2.11zm-.22-46.83l-2.12-.01v.02l2.12-.01zM860.49 448h-2.13v2.12h2.12V448zm0-173.94v-2.12h-2.13v2.12h2.12zm46.82 42.26h38.14v-4.24H907.3v4.24zm38.14 0c7.5 0 13.24.35 17.7 1.45 4.37 1.09 7.37 2.87 9.52 5.67 2.2 2.86 3.71 7.01 4.64 13.18.93 6.16 1.25 14.12 1.25 24.41h4.24c0-10.33-.32-18.55-1.3-25.04-.97-6.48-2.63-11.45-5.47-15.14-2.89-3.75-6.82-5.94-11.87-7.2-4.98-1.22-11.17-1.57-18.71-1.57v4.24zm33.1 44.71c0 10.18-.31 18.08-1.24 24.22-.93 6.14-2.43 10.32-4.64 13.21-4.33 5.67-12.04 7.28-27.22 7.28v4.24c14.91 0 24.82-1.4 30.58-8.94 2.84-3.72 4.5-8.7 5.47-15.16.98-6.47 1.3-14.63 1.3-24.85h-4.24zm-33.1 44.71H907.3v4.24h38.14v-4.24zm-36.02 2.11l-.22-46.83-4.24.02.22 46.83 4.24-.02zm-.22-46.81l.22-46.83-4.24-.02-.22 46.83 4.24.02zm-48.73 89.08h89.87v-4.24h-89.87v4.24zm89.87 0c16.7 0 30.18-.74 40.98-3.07 10.84-2.34 19.12-6.32 25.27-12.9 6.13-6.58 9.92-15.54 12.19-27.43 2.27-11.88 3.07-26.87 3.07-45.69h-4.24c0 18.76-.8 33.42-2.99 44.9-2.19 11.45-5.75 19.55-11.13 25.32-5.37 5.76-12.76 9.43-23.06 11.66-10.34 2.23-23.45 2.97-40.09 2.97v4.24zm81.51-89.09c0-18.82-.8-33.81-3.07-45.7-2.27-11.88-6.06-20.84-12.19-27.41-6.15-6.6-14.43-10.57-25.27-12.91-10.8-2.33-24.28-3.07-40.98-3.07v4.24c16.64 0 29.75.74 40.09 2.97 10.3 2.23 17.69 5.9 23.06 11.66 5.38 5.77 8.94 13.87 11.13 25.32 2.19 11.48 2.99 26.14 2.99 44.9h4.24zm-81.5-89.09h-89.88v4.24h89.87v-4.24zm-92 2.12V448h4.24V274.06h-4.24zm314.01 0l2.01-.68-.49-1.44h-1.52v2.12zm-75.82 0v-2.12h-1.51l-.49 1.43 2 .69zM1036.57 448l-2.01-.7-.97 2.82h2.98V448zm51.29 0v2.12h1.6l.44-1.54-2.04-.58zm9.59-33.9v-2.12h-1.61l-.43 1.55 2.04.57zm69.79 0l2.02-.65-.47-1.46h-1.55v2.11zm10.93 33.9l-2.02.65.48 1.47h1.54V448zm53.52 0v2.12h2.96l-.95-2.8-2.01.68zm-123.32-71.8l-1.99-.73-1.04 2.84h3.03v-2.12zm24.31-66.46v-2.12h-1.48l-.51 1.4 1.99.72zm1.78 0l2.01-.67-.48-1.45h-1.53v2.12zm22.3 66.45v2.12h2.95l-.94-2.79-2.01.67zm15.61-104.25h-75.82v4.24h75.82v-4.24zm-77.82 1.43l-59.99 173.94 4.01 1.38 59.99-173.94-4.01-1.38zm-57.98 176.75h51.29v-4.24h-51.29v4.24zm53.33-1.54l9.58-33.9-4.07-1.15-9.59 33.9 4.08 1.15zm7.55-32.36h69.79v-4.24h-69.79v4.24zm67.78-1.47l10.92 33.9 4.04-1.3-10.93-33.9-4.03 1.3zm12.94 35.37h53.52v-4.24h-53.52v4.24zm55.53-2.8l-59.32-173.94-4.01 1.36 59.32 173.94 4.01-1.36zm-123.34-70.4l24.31-66.45-3.98-1.46-24.31 66.46 3.98 1.45zm22.32-65.06h1.78v-4.24h-1.78v4.24zm-.23-1.45l22.3 66.46 4.02-1.35-22.3-66.45-4.02 1.34zm24.31 63.66h-48.39v4.24h48.39v-4.24zm214.06-100.01l1.85 1.02 1.74-3.14h-3.59v2.12zm-51.29 0v-2.12h-1.3l-.59 1.16 1.89.96zm-33.01 64.67v2.12h1.3l.59-1.16-1.89-.96zm-1.33 0l-1.9.95.59 1.17h1.31v-2.12zm-32.34-64.67l1.9-.95-.59-1.17h-1.31v2.12zm-53.52 0v-2.12h-3.62l1.77 3.16 1.85-1.04zm62.89 111.95h2.12v-.56l-.27-.48-1.85 1.04zm0 61.99h-2.12v2.12h2.12V448zm46.83 0v2.12h2.12V448h-2.12zm0-62l-1.86-1.02-.26.48v.55h2.12zm61.77-114.06h-51.29v4.24h51.29v-4.24zm-53.18 1.16l-33 64.67 3.77 1.92 33.01-64.67-3.78-1.92zm-31.12 63.51h-1.33v4.24h1.33v-4.24zm.56 1.17l-32.33-64.67-3.79 1.9 32.33 64.67 3.79-1.9zm-34.23-65.84h-53.52v4.24h53.52v-4.24zm-55.37 3.16l62.89 111.94 3.7-2.07-62.89-111.95-3.7 2.08zM1260.1 386v62h4.24v-62h-4.24zm2.12 64.12h46.83v-4.24h-46.83v4.24zm48.95-2.12v-62h-4.24v62h4.24zm-.27-60.97l61.77-111.95-3.71-2.04-61.77 111.94 3.71 2.05z"/>
  <path stroke="#fff" stroke-width="1.5" d="M505.25 61.49c0 .4-.17.87-.62 1.4a8.41 8.41 0 01-2.17 1.66c-2 1.16-5 2.3-8.92 3.39-7.84 2.19-19.22 4.17-33.32 5.83-28.2 3.34-67.16 5.4-110.22 5.4s-82.03-2.06-110.22-5.4c-14.1-1.66-25.48-3.64-33.32-5.83-3.92-1.1-6.92-2.23-8.92-3.39a8.41 8.41 0 01-2.17-1.67c-.45-.52-.62-.98-.62-1.4 0-.4.17-.86.62-1.39a8.4 8.4 0 012.17-1.67c2-1.15 5-2.29 8.92-3.38 7.84-2.2 19.22-4.17 33.32-5.84 28.2-3.33 67.16-5.39 110.22-5.39s82.03 2.06 110.22 5.4c14.1 1.66 25.48 3.64 33.32 5.83 3.92 1.1 6.92 2.23 8.92 3.38a8.4 8.4 0 012.17 1.67c.45.53.62 1 .62 1.4zM505.25 107.25c0 1.57-.9 3.22-2.9 4.94-2 1.7-4.98 3.38-8.9 5-7.82 3.24-19.18 6.17-33.27 8.64-28.18 4.94-67.13 8-110.18 8-43.05 0-82-3.06-110.18-8-14.1-2.47-25.45-5.4-33.27-8.64-3.92-1.62-6.9-3.3-8.9-5-2-1.72-2.9-3.37-2.9-4.94 0-1.58.9-3.23 2.9-4.94 2-1.7 4.98-3.39 8.9-5 7.82-3.25 19.18-6.18 33.27-8.65 28.18-4.94 67.13-8 110.18-8 43.05 0 82 3.06 110.18 8 14.1 2.47 25.45 5.4 33.27 8.64 3.92 1.62 6.9 3.3 8.9 5 2 1.72 2.9 3.37 2.9 4.95zM505.25 176.98c0 5.46-4.08 10.84-11.92 15.88-7.8 5.01-19.14 9.56-33.22 13.38-28.15 7.66-67.08 12.4-110.11 12.4s-81.96-4.74-110.11-12.4c-14.08-3.82-25.42-8.37-33.22-13.38-7.84-5.04-11.92-10.42-11.92-15.88 0-5.45 4.08-10.84 11.91-15.87 7.8-5.02 19.15-9.56 33.23-13.4 28.15-7.64 67.08-12.39 110.11-12.39s81.96 4.75 110.11 12.4c14.08 3.83 25.42 8.37 33.22 13.39 7.84 5.03 11.92 10.41 11.92 15.87zM350 61.29v115.46"/>
</svg>
