<svg xmlns="http://www.w3.org/2000/svg" fill="none" viewBox="0 0 284 24">
  <defs/>
  <path fill="#fff" d="M11.78 12h11.2c0 6.06-5.02 10.98-11.2 10.98V12zM11.78 1.02V12H.6C.6 5.94 5.6 1.02 11.8 1.02z"/>
  <path stroke="#fff" stroke-miterlimit="10" d="M11.78 22.98c6.18 0 11.2-4.92 11.2-10.98 0-6.06-5.02-10.98-11.2-10.98A11.09 11.09 0 00.6 12c0 6.06 5.01 10.98 11.2 10.98zM142.41 22.03c22.66 0 41.03-4.5 41.03-10.03 0-5.54-18.37-10.03-41.03-10.03S101.4 6.47 101.4 12c0 5.54 18.36 10.03 41.02 10.03z"/>
  <path stroke="#fff" stroke-miterlimit="10" d="M142.41 22.03c5.65 0 10.22-4.5 10.22-10.03 0-5.54-4.57-10.03-10.22-10.03A10.13 10.13 0 00132.2 12c0 5.54 4.58 10.03 10.22 10.03z"/>
  <path fill="#fff" d="M142.41 13.84c1.04 0 1.88-.82 1.88-1.84s-.84-1.84-1.88-1.84c-1.03 0-1.88.82-1.88 1.84s.85 1.84 1.88 1.84zM243.23 24h-37.6a2.4 2.4 0 01-2.42-2.38V2.38A2.4 2.4 0 01205.63 0h37.6a2.4 2.4 0 012.43 2.38V21.6a2.39 2.39 0 01-2.43 2.39z"/>
  <path fill="#000" d="M210.25 15v-2.04l7.33-5.82h3.67v6h2.07V15h-2.07v2.17h-2.93V15h-8.07zm8.06-5.7h-.07l-4.71 3.77v.08h4.8V9.3h-.02zM238.81 17.17H235l-4.24-4.98-2.85 2.06v2.92h-3.03V6.91h3.03v4.5l6.07-4.5h4.09l-4.99 3.6 5.74 6.66z"/>
  <path fill="#fff" d="M79.43 24h-37.6a2.4 2.4 0 01-2.42-2.38V2.38A2.39 2.39 0 0141.83 0h37.6a2.4 2.4 0 012.42 2.38V21.6A2.4 2.4 0 0179.43 24z"/>
  <path fill="#000" d="M59.6 6.91v10.26h-3.02v-4.16h-7.35v4.16H46.2V6.91h3.03v3.92h7.35V6.9h3.02zM75.47 12.05c0 3.68-2.24 5.12-6.3 5.12h-7.36V6.91h7.36c4.05 0 6.3 1.45 6.3 5.14zm-10.63-3v5.98h3.67c2.3 0 3.63-.85 3.63-3 0-2.14-1.32-2.99-3.63-2.99h-3.67v.02z"/>
  <path fill="#fff" d="M283.7 22.52h-23.98l-.04-.03a.42.42 0 01-.26-.26l-.03-.06V22a.09.09 0 00.02-.05l.07-.14 1-1.7 1.28-2.17 1.68-2.85 1.58-2.7 1.7-2.87 1.52-2.59 1.69-2.86 1.38-2.35a.5.5 0 01.3-.25H271.8s.03 0 .04.02c.1.03.18.1.24.2l.05.07.95 1.63 1.9 3.22 2.72 4.64c.84 1.42 1.7 2.86 2.53 4.29l1.96 3.34 1.73 2.93c.02.05.06.1.07.15v.23a.46.46 0 01-.26.3l-.04.02zM271.71 8.19h-2.25c-.04 0-.05.02-.05.07v.03c0 .13 0 .27.02.4l.02.39c.02.11.02.23.03.36 0 .2.03.4.04.61a136.17 136.17 0 00.09 1.28c0 .13 0 .25.02.38l.02.28c.02.13.03.24.03.37l.02.36c0 .1.01.18.03.28l.02.38.02.36c0 .1.02.18.03.28l.02.38.02.36c0 .1.02.18.03.28l.02.42c.01.1.01.11.12.11h3.46c.04 0 .05-.02.06-.05l.01-.06.03-.36c0-.12 0-.24.02-.36l.02-.34.05-.57.04-.6c0-.1 0-.17.02-.27l.02-.32.03-.36c0-.1 0-.18.02-.27l.02-.36.03-.33.02-.27.02-.34c.02-.11.02-.23.03-.34l.02-.26.03-.36c0-.12 0-.23.02-.34l.02-.25.03-.35.02-.4.01-.17c0-.03-.01-.05-.06-.05h-2.29zm0 8.25h-2.19c-.03 0-.05.02-.05.06v3.66c0 .03.02.04.04.04h4.37c.03 0 .05-.03.05-.05v-.1-1.88-1.58-.1c0-.03-.02-.05-.06-.05h-2.16z"/>
</svg>
