<svg xmlns="http://www.w3.org/2000/svg" fill="none" viewBox="0 0 1376 365">
  <defs/>
  <g fill="#fff" clip-path="url(#clip0)">
    <path d="M-.73 4.85v165.36h101.98c42.6 0 50.66-7.2 50.66-45.58v-4.24c0-24.8-8.05-32-36.67-33.92 23.95-2.54 30.74-8.69 30.74-34.13V47.9c0-36.25-7-43.04-44.73-43.04H-.73zM43.8 132.9v-29.68h44.95c15.69 0 18.66 2.33 18.66 15.05 0 11.88-2.97 14.63-18.66 14.63H43.79zm0-64.02V41.32h42.83c12.5 0 14.84 2.33 14.84 13.99 0 11.24-2.33 13.57-14.84 13.57H43.79zM290.45 4.85h-72.08l-57.03 165.36h48.76l9.12-32.22h66.35l10.4 32.22h50.87L290.45 4.85zm-60.84 97.1l23.1-63.18h1.7l21.2 63.18h-46zM400.73 115.73v-2.12H354.1v2.12c0 48.12 11.88 57.03 80.99 57.03 67.2 0 78.44-7.63 78.44-47.49 0-32.86-4.24-40.07-27.35-46.43-14.42-4.03-26.08-6.57-51.1-11.45-26.92-3.81-33.28-6.14-33.28-14.62 0-11.88 5.1-14.42 33.29-14.42 25.86 0 29.89 3.6 29.89 21.2v2.12h46.64v-2.12c0-48.34-12.09-57.24-76.53-57.24-62.75 0-77.8 9.96-77.8 46 0 34.98 5.3 42.62 33.07 49.19 22.25 5.09 30.52 7 44.73 9.33 26.07 5.08 33.92 7.42 33.92 16.53 0 11.24-5.73 13.36-33.92 13.36-28.62 0-34.35-2.55-34.35-20.99zM530.3 4.85v165.36h135.47v-38.16h-90.94V104.5h80.13V68.45h-80.13V43.01h90.94V4.85H530.31zM729.2 170.21V47.25h1.27l24.38 122.96h59.36L842.2 47.25h1.27v122.96h44.52V4.85h-77.8l-24.8 127.2h-1.7L762.26 4.85h-77.59v165.36h44.52zM906.96 4.85v165.36h135.47v-38.16h-90.95V104.5h80.14V68.45h-80.14V43.01h90.95V4.85H906.96zM1061.34 170.21h42.4V68.45h1.27l62.33 101.76h50.88V4.85h-42.4v101.76h-1.27L1114.34 4.85h-53v165.36zM1280.49 170.21h44.52V40.9h51.09V4.85h-146.28V40.9h50.67v129.32z"/>
    <path fill-rule="evenodd" d="M246.04 296.4v4.12c0 9.17 1.47 13.34 5.46 15.68 2.15 1.26 5.22 2.12 9.68 2.63 4.44.51 10.06.67 17.2.67 7.04 0 12.62-.13 17.04-.5 4.44-.37 7.57-.96 9.77-1.82 2.16-.84 3.33-1.9 4.03-3.17.74-1.34 1.09-3.18 1.09-5.86 0-1.98-.42-3.39-1.26-4.54-.86-1.2-2.3-2.32-4.75-3.42-4.95-2.24-13.16-4.05-26.27-6.6-13.97-2.3-22.25-4.2-43.5-9.06l-1.33-.3c-13.9-3.29-22.89-6.97-28.15-14.77-5.19-7.67-6.47-18.93-6.47-36.36 0-18.26 3.82-30.69 16.34-38.23 6.13-3.7 14.18-6.12 24.55-7.63 10.37-1.52 23.2-2.14 38.92-2.14 16.13 0 29.1.55 39.45 2.17 10.35 1.61 18.27 4.3 24.18 8.72 11.95 8.92 14.9 24.22 14.9 48.35v4.12h-50.64v-4.12c0-8.87-1.08-13.14-4.43-15.59-1.75-1.28-4.31-2.2-8.18-2.8-3.86-.59-8.84-.81-15.28-.81-7.03 0-12.56.16-16.9.57-4.38.42-7.4 1.08-9.5 2.01-2.04.9-3.17 2.02-3.85 3.44-.72 1.5-1.04 3.52-1.04 6.4 0 1.86.35 3.15 1.06 4.18.73 1.05 2 2.06 4.28 3.04 4.66 2 12.7 3.5 26.23 5.42h.05l.05.02c25.03 4.88 36.75 7.43 51.25 11.48 11.61 3.2 19.15 6.76 23.52 14.19 4.27 7.24 5.29 17.8 5.29 34.17 0 19.95-2.77 32.89-14.97 40.39-5.96 3.66-14 5.91-24.61 7.26-10.63 1.36-24.04 1.83-40.86 1.83-17.3 0-31.12-.55-42.1-2.16-10.97-1.6-19.3-4.29-25.47-8.67-12.52-8.9-15.42-24.18-15.42-48.2v-4.11h50.64zm83.44-32.77c-14.42-4.03-26.08-6.57-51.1-11.45-26.92-3.82-33.28-6.15-33.28-14.63 0-11.87 5.1-14.41 33.29-14.41 25.86 0 29.89 3.6 29.89 21.2v2.12h46.64v-2.12c0-48.34-12.08-57.24-76.53-57.24-62.75 0-77.8 9.96-77.8 46 0 34.98 5.3 42.61 33.07 49.18l1.27.3c21.3 4.87 29.53 6.75 43.46 9.03 26.07 5.09 33.92 7.42 33.92 16.54 0 11.23-5.73 13.35-33.92 13.35-28.62 0-34.35-2.54-34.35-20.98v-2.12H197.4v2.12c0 48.12 11.88 57.02 80.99 57.02 67.2 0 78.44-7.63 78.44-47.48 0-32.86-4.24-40.07-27.35-46.43zm203.84-75.99v99.52c0 14.88-.71 26.87-2.8 36.46-2.1 9.63-5.6 16.98-11.28 22.44-5.67 5.44-13.3 8.79-23.3 10.8-9.98 2-22.46 2.68-37.97 2.68-15.5 0-28-.68-37.97-2.69-10-2-17.64-5.35-23.3-10.8-5.68-5.45-9.19-12.8-11.28-22.43-2.09-9.6-2.8-21.58-2.8-36.46v-99.52h48.52v99.52c0 7.23.28 12.87 1.04 17.28.77 4.4 2 7.4 3.76 9.5 3.5 4.16 9.75 5.56 22.03 5.56 12.28 0 18.53-1.4 22.02-5.56 1.77-2.1 3-5.1 3.76-9.5.77-4.4 1.05-10.05 1.05-17.28v-99.52h48.52zm-2 2v97.52c0 59.36-11.45 70.38-73.35 70.38-61.9 0-73.35-11.02-73.35-70.38v-97.52h44.52v97.52c0 29.04 4.45 34.34 28.83 34.34s28.83-5.3 28.83-34.34v-97.52h44.52zm28.06-2h96.55c21.65 0 36.2 2.98 45.2 12.15 9 9.16 11.92 23.96 11.92 46.03v8.48c0 21.44-2.72 35.92-11.06 45.22-8.37 9.34-21.94 12.95-42.14 14.02H607.9V357h-48.52V187.64zM605.9 355h-44.52V189.64h94.55c43.25 0 55.12 12.08 55.12 56.18v8.48c0 42.82-11.02 55.12-51.3 57.24H605.9V355zm2-127.32v43.7h36.58c4.63 0 8.17-.23 10.9-.82 2.69-.6 4.45-1.51 5.67-2.8 1.24-1.3 2.13-3.17 2.7-6.04.57-2.88.78-6.6.78-11.45 0-5.16-.21-9.15-.79-12.24-.57-3.08-1.47-5.11-2.73-6.51-1.23-1.38-2.99-2.35-5.66-2.97-2.72-.63-6.24-.87-10.87-.87H607.9zm128.03-40.04h96.56c21.65 0 36.2 2.98 45.2 12.15 8.99 9.16 11.91 23.96 11.91 46.03v8.48c0 21.44-2.72 35.92-11.05 45.22-8.37 9.34-21.94 12.95-42.14 14.02h-51.96V357h-48.52V187.64zM782.45 355h-44.52V189.64h94.56c43.24 0 55.12 12.08 55.12 56.18v8.48c0 42.82-11.03 55.12-51.3 57.24h-53.86V355zm2-127.32v43.7h36.59c4.63 0 8.16-.23 10.89-.82 2.7-.6 4.45-1.51 5.68-2.8 1.24-1.3 2.13-3.17 2.7-6.04.56-2.88.78-6.6.78-11.45 0-5.16-.22-9.15-.8-12.24-.57-3.08-1.47-5.11-2.72-6.51-1.24-1.38-3-2.35-5.67-2.97-2.71-.63-6.24-.87-10.86-.87h-36.59zm128.04-40.04H961v127.2H1035V357H912.49V187.64zM1033 316.84V355H914.49V189.64H959v127.2H1033zm154.1-129.2l-60.11 108.94V357h-48.52v-60.41l-61.2-108.95h55.53l30.15 60.3 30.78-60.3h53.37zm-115.53 2h-50.89l59.79 106.42V355h44.52v-58.94l58.72-106.42h-48.76l-31.37 61.48h-1.28l-30.73-61.48zM605.9 273.38h38.58c18.66 0 22.05-3.6 22.05-23.1 0-20.78-3.4-24.6-22.05-24.6H605.9v47.7zm176.55 0h38.59c18.65 0 22.05-3.6 22.05-23.1 0-20.78-3.4-24.6-22.05-24.6h-38.59v47.7z" clip-rule="evenodd"/>
    <path d="M1263.85 294.27v-3.4h-6.84l4.62-3.92c1.76-1.5 2.02-2 2.1-4.52.12-3.2-.92-4-6.32-4-5.42 0-6.22.84-6.22 5.4v.2h4v-.2c0-1.66.48-2.2 2.2-2.2 1.78 0 2.26.44 2.26 1.56 0 1-.5 1.5-1.64 2.46l-6.9 5.82v2.8h12.74zM1265.65 294.27h4.2v-6.26h2.22l3.54 6.26h4.8l-5.06-8.16 4.86-7.44h-4.6l-3.66 5.74h-2.1v-5.74h-4.2v15.6zM1284.41 294.27h3.8v-15.6h-3.6c0 2.04-.44 2.42-2.18 2.42h-1.82v2.8h3.8v10.38zM1289.61 283.61v.64c0 3.84.98 4.68 4.56 4.68 2.44 0 3.72-.68 4.22-2.42v3.4c0 1.34-.38 1.6-2.56 1.6-1.46 0-1.76-.16-1.76-1.08h-4c0 3.38.76 4 5.9 4 5.28 0 6.22-.66 6.22-4.24v-7.24c-.04-3.5-1.32-4.52-6.2-4.52-5.38 0-6.38.82-6.38 5.18zm4 .22v-.02c0-1.86.34-2.18 2.38-2.18 2.06 0 2.4.24 2.4 1.5v1.26c0 1.16-.6 1.44-2.4 1.44-2.04 0-2.38-.32-2.38-2z"/>
    <path fill-rule="evenodd" d="M1329.1 309.47c13.62-6.46 21.4-15.08 21.4-24.1 0-9.03-7.78-17.65-21.4-24.1-13.51-6.4-32.28-10.4-53.1-10.4s-39.59 4-53.1 10.4c-13.62 6.45-21.4 15.07-21.4 24.1 0 9.02 7.78 17.64 21.4 24.1 13.51 6.4 32.28 10.4 53.1 10.4s39.59-4 53.1-10.4zm-53.1 11.9c41.97 0 76-16.12 76-36 0-19.89-34.03-36-76-36s-76 16.11-76 36c0 19.88 34.03 36 76 36z" clip-rule="evenodd"/>
    <path d="M78.85 278.67v15.6h12.78v-3.6h-8.58v-2.6h7.56v-3.4h-7.56v-2.4h8.58v-3.6H78.85zM97.22 289.13v-.2h-4.4v.2c0 4.54 1.12 5.38 7.64 5.38 6.34 0 7.4-.72 7.4-4.48 0-3.1-.4-3.78-2.58-4.38a56.56 56.56 0 00-4.82-1.08c-2.54-.36-3.14-.58-3.14-1.38 0-1.12.48-1.36 3.14-1.36 2.44 0 2.82.34 2.82 2v.2h4.4v-.2c0-4.56-1.14-5.4-7.22-5.4-5.92 0-7.34.94-7.34 4.34 0 3.3.5 4.02 3.12 4.64 2.1.48 2.88.66 4.22.88 2.46.48 3.2.7 3.2 1.56 0 1.06-.54 1.26-3.2 1.26-2.7 0-3.24-.24-3.24-1.98zM113.34 294.27h4.2v-12.2h4.82v-3.4h-13.8v3.4h4.78v12.2z"/>
    <path fill-rule="evenodd" d="M153.1 309.47c13.62-6.46 21.4-15.08 21.4-24.1 0-9.03-7.78-17.65-21.4-24.1-13.51-6.4-32.28-10.4-53.1-10.4s-39.59 4-53.1 10.4c-13.62 6.45-21.4 15.07-21.4 24.1 0 9.02 7.78 17.64 21.4 24.1 13.51 6.4 32.28 10.4 53.1 10.4 20.81 0 39.59-4 53.1-10.4zm-53.1 11.9c41.97 0 76-16.12 76-36 0-19.89-34.03-36-76-36s-76 16.11-76 36c0 19.88 34.03 36 76 36z" clip-rule="evenodd"/>
  </g>
  <defs>
    <clipPath id="clip0">
      <path fill="#fff" d="M0 0h1376v365H0z"/>
    </clipPath>
  </defs>
</svg>
